<mxfile host="app.diagrams.net" modified="2020-10-20T09:27:45.448Z" agent="5.0 (Windows NT 10.0; Win64; x64) AppleWebKit/537.36 (KHTML, like Gecko) Chrome/86.0.4240.80 Safari/537.36 Edg/86.0.622.43" etag="HvX85-fABhb8_ixuvB5i" version="13.8.0" type="github">
  <diagram id="S7an9BZyGYWnCZFcgj_N" name="Page-1">
    <mxGraphModel dx="1038" dy="579" grid="1" gridSize="10" guides="1" tooltips="1" connect="1" arrows="1" fold="1" page="1" pageScale="1" pageWidth="827" pageHeight="1169" math="0" shadow="0">
      <root>
        <mxCell id="0" />
        <mxCell id="1" parent="0" />
        <mxCell id="xWQgpfJNr6WqRwM8H0tG-9" value="" style="rounded=0;whiteSpace=wrap;html=1;fillColor=none;dashed=1;" vertex="1" parent="1">
          <mxGeometry x="30" y="185" width="440" height="300" as="geometry" />
        </mxCell>
        <mxCell id="xWQgpfJNr6WqRwM8H0tG-5" value="" style="rounded=0;whiteSpace=wrap;html=1;fillColor=#f5f5f5;strokeColor=#666666;fontColor=#333333;" vertex="1" parent="1">
          <mxGeometry x="90" y="230" width="320" height="210" as="geometry" />
        </mxCell>
        <mxCell id="xWQgpfJNr6WqRwM8H0tG-1" value="User" style="aspect=fixed;pointerEvents=1;shadow=0;dashed=0;html=1;strokeColor=none;labelPosition=center;verticalLabelPosition=bottom;verticalAlign=top;align=center;fillColor=#00188D;shape=mxgraph.azure.user" vertex="1" parent="1">
          <mxGeometry x="216.39999999999998" y="20" width="56.4" height="60" as="geometry" />
        </mxCell>
        <mxCell id="xWQgpfJNr6WqRwM8H0tG-3" value="Web Application&lt;br&gt;[Python Flask]" style="rounded=0;whiteSpace=wrap;html=1;fillColor=#dae8fc;strokeColor=#6c8ebf;" vertex="1" parent="1">
          <mxGeometry x="160" y="324" width="180" height="50" as="geometry" />
        </mxCell>
        <mxCell id="xWQgpfJNr6WqRwM8H0tG-4" value="Gunicorn&lt;br&gt;[WSGI Server]" style="rounded=0;whiteSpace=wrap;html=1;fillColor=#dae8fc;strokeColor=#6c8ebf;" vertex="1" parent="1">
          <mxGeometry x="179" y="274" width="142" height="50" as="geometry" />
        </mxCell>
        <mxCell id="xWQgpfJNr6WqRwM8H0tG-6" value="Web Application Container" style="text;html=1;strokeColor=none;fillColor=none;align=center;verticalAlign=middle;whiteSpace=wrap;rounded=0;" vertex="1" parent="1">
          <mxGeometry x="150" y="240" width="200" height="20" as="geometry" />
        </mxCell>
        <mxCell id="xWQgpfJNr6WqRwM8H0tG-8" value="Trello System&lt;br&gt;[Sofware System]&lt;br&gt;&lt;br&gt;The 3rd party system to create store ToDo cards" style="whiteSpace=wrap;html=1;aspect=fixed;fillColor=#E6E6E6;" vertex="1" parent="1">
          <mxGeometry x="640" y="290" width="130" height="130" as="geometry" />
        </mxCell>
        <mxCell id="xWQgpfJNr6WqRwM8H0tG-13" style="edgeStyle=none;rounded=0;orthogonalLoop=1;jettySize=auto;html=1;exitX=1;exitY=0.5;exitDx=0;exitDy=0;entryX=-0.003;entryY=0.823;entryDx=0;entryDy=0;entryPerimeter=0;" edge="1" parent="1" source="xWQgpfJNr6WqRwM8H0tG-10" target="xWQgpfJNr6WqRwM8H0tG-8">
          <mxGeometry relative="1" as="geometry" />
        </mxCell>
        <mxCell id="xWQgpfJNr6WqRwM8H0tG-10" value="TodoController" style="rounded=0;whiteSpace=wrap;html=1;fillColor=#dae8fc;strokeColor=#6c8ebf;" vertex="1" parent="1">
          <mxGeometry x="140" y="374" width="220" height="50" as="geometry" />
        </mxCell>
        <mxCell id="xWQgpfJNr6WqRwM8H0tG-11" value="View todo list,,&lt;br&gt;create new todo items,&lt;br&gt;&amp;nbsp;and update items" style="rounded=0;orthogonalLoop=1;jettySize=auto;html=1;dashed=1;exitX=0.596;exitY=1.143;exitDx=0;exitDy=0;exitPerimeter=0;entryX=0.5;entryY=0;entryDx=0;entryDy=0;" edge="1" parent="1" source="xWQgpfJNr6WqRwM8H0tG-1" target="xWQgpfJNr6WqRwM8H0tG-4">
          <mxGeometry relative="1" as="geometry">
            <mxPoint x="48.200000000000045" y="123" as="sourcePoint" />
            <mxPoint x="241" y="170" as="targetPoint" />
          </mxGeometry>
        </mxCell>
        <mxCell id="xWQgpfJNr6WqRwM8H0tG-12" value="Gets todo from tello board&lt;br&gt;perform updates&amp;nbsp;on Trello" style="edgeLabel;html=1;align=center;verticalAlign=middle;resizable=0;points=[];" vertex="1" connectable="0" parent="1">
          <mxGeometry x="520" y="399" as="geometry" />
        </mxCell>
      </root>
    </mxGraphModel>
  </diagram>
</mxfile>
